<svg width="16" height="17" viewBox="0 0 16 17" fill="none" xmlns="http://www.w3.org/2000/svg">
<path d="M6.41491 1.0204C6.87441 0.682794 7.42971 0.500732 7.99991 0.500732C8.5701 0.500732 9.1254 0.682794 9.58491 1.0204L10.5129 1.7004C10.6659 1.8134 10.8429 1.8864 11.0309 1.9154L12.1689 2.0904C12.7322 2.17676 13.2532 2.44055 13.6562 2.8434C14.0593 3.24626 14.3233 3.76717 14.4099 4.33039L14.5849 5.4684C14.6139 5.6554 14.6869 5.8334 14.7999 5.9864L15.4799 6.9144C15.8175 7.3739 15.9996 7.9292 15.9996 8.4994C15.9996 9.06959 15.8175 9.62489 15.4799 10.0844L14.7999 11.0124C14.6879 11.1654 14.6141 11.343 14.5849 11.5304L14.4099 12.6684C14.3235 13.2318 14.0595 13.7529 13.6565 14.156C13.2535 14.559 12.7323 14.823 12.1689 14.9094L11.0309 15.0844C10.8435 15.1136 10.6659 15.1873 10.5129 15.2994L9.58491 15.9794C9.1254 16.317 8.5701 16.4991 7.99991 16.4991C7.42971 16.4991 6.87441 16.317 6.41491 15.9794L5.48691 15.2994C5.33391 15.1873 5.15628 15.1136 4.96891 15.0844L3.82991 14.9104C3.26682 14.8238 2.74602 14.56 2.34318 14.1571C1.94034 13.7543 1.67647 13.2335 1.58991 12.6704L1.41491 11.5324C1.38568 11.345 1.31196 11.1674 1.19991 11.0144L0.519907 10.0864C0.182306 9.62689 0.000244141 9.07159 0.000244141 8.5014C0.000244141 7.9312 0.182306 7.3759 0.519907 6.9164L1.19991 5.9884C1.31251 5.83571 1.3863 5.65794 1.41491 5.4704L1.58991 4.33039C1.67647 3.76731 1.94034 3.24651 2.34318 2.84367C2.74602 2.44083 3.26682 2.17696 3.82991 2.0904L4.96791 1.9154C5.15491 1.8864 5.33291 1.8134 5.48591 1.7004L6.41491 1.0204ZM8.69691 2.2294C8.49467 2.08135 8.25054 2.00155 7.99991 2.00155C7.74927 2.00155 7.50515 2.08135 7.30291 2.2294L6.37491 2.90939C6.02693 3.16546 5.62201 3.33327 5.19491 3.3984L4.05891 3.5724C3.8108 3.61054 3.58132 3.72681 3.40382 3.90431C3.22632 4.08181 3.11005 4.31129 3.07191 4.5594L2.89791 5.6964C2.83278 6.1235 2.66498 6.52842 2.40891 6.8764L1.72891 7.8034C1.42391 8.2184 1.42391 8.78339 1.72891 9.19739L2.40891 10.1254C2.66491 10.4734 2.83191 10.8774 2.89791 11.3054L3.07191 12.4414C3.14991 12.9514 3.54991 13.3504 4.05891 13.4284L5.19591 13.6024C5.62291 13.6684 6.02691 13.8354 6.37591 14.0914L7.30291 14.7714C7.71791 15.0764 8.28291 15.0764 8.69691 14.7714L9.62491 14.0914C9.97288 13.8353 10.3778 13.6675 10.8049 13.6024L11.9409 13.4284C12.4509 13.3504 12.8499 12.9504 12.9279 12.4414L13.1019 11.3044C13.1679 10.8774 13.3349 10.4734 13.5909 10.1244L14.2709 9.19739C14.5759 8.78239 14.5759 8.2174 14.2709 7.8034L13.5909 6.8754C13.3348 6.52742 13.167 6.1225 13.1019 5.6954L12.9279 4.5594C12.8898 4.31129 12.7735 4.08181 12.596 3.90431C12.4185 3.72681 12.189 3.61054 11.9409 3.5724L10.8039 3.3984C10.3768 3.33327 9.97188 3.16546 9.62391 2.90939L8.69691 2.2294ZM6.91991 6.5854C6.83013 6.76176 6.67529 6.8955 6.48734 6.95747C6.29939 7.01943 6.09456 7.0046 5.9175 6.9162C5.74044 6.8278 5.60549 6.673 5.54207 6.48554C5.47865 6.29807 5.49189 6.09314 5.57891 5.9154C5.74791 5.5764 6.01491 5.2144 6.42791 4.9384C6.84591 4.6604 7.36891 4.5004 7.99991 4.5004C8.58789 4.49645 9.16177 4.68038 9.63791 5.0254C10.1399 5.4024 10.4999 5.9904 10.4999 6.7504C10.4999 7.1984 10.3849 7.5804 10.1709 7.9004C9.96591 8.2074 9.70091 8.41339 9.47891 8.5624C9.36991 8.63439 9.25891 8.70039 9.16591 8.75739L9.15991 8.76139C9.07195 8.8126 8.98526 8.86595 8.89991 8.92139C8.79281 8.98428 8.69904 9.06751 8.62391 9.1664C8.51256 9.3295 8.34138 9.4421 8.14752 9.47977C7.95366 9.51743 7.75277 9.47712 7.58846 9.36757C7.42414 9.25803 7.30966 9.08809 7.26987 8.89466C7.23007 8.70123 7.26818 8.49991 7.37591 8.3344C7.55991 8.0704 7.79591 7.8454 8.06791 7.6734C8.17691 7.6004 8.28791 7.5344 8.38091 7.4784L8.38791 7.4744C8.48791 7.4134 8.56991 7.3644 8.64591 7.3134C8.75311 7.25027 8.84716 7.16709 8.92291 7.0684C8.95991 7.0144 8.99991 6.9274 8.99991 6.7504C9.0037 6.64794 8.9817 6.54618 8.93592 6.45445C8.89015 6.36272 8.82206 6.28396 8.73791 6.2254C8.52119 6.07568 8.26329 5.99705 7.99991 6.0004C7.63091 6.0004 7.40491 6.09039 7.25991 6.1874C7.11357 6.28788 6.99629 6.42515 6.91991 6.5854ZM8.99991 11.5004C8.99991 11.7656 8.89455 12.02 8.70701 12.2075C8.51948 12.395 8.26512 12.5004 7.99991 12.5004C7.73469 12.5004 7.48034 12.395 7.2928 12.2075C7.10526 12.02 6.99991 11.7656 6.99991 11.5004C6.99991 11.2352 7.10526 10.9808 7.2928 10.7933C7.48034 10.6058 7.73469 10.5004 7.99991 10.5004C8.26512 10.5004 8.51948 10.6058 8.70701 10.7933C8.89455 10.9808 8.99991 11.2352 8.99991 11.5004Z" fill="#585858"/>
</svg>
