<svg width="30" height="35" viewBox="0 0 30 35" fill="none" xmlns="http://www.w3.org/2000/svg">
<path d="M29.9783 24.6667C29.9855 24.4887 29.9636 24.3108 29.9133 24.14L26.58 14.14C26.4699 13.808 26.258 13.5191 25.9744 13.3145C25.6907 13.1098 25.3498 12.9998 25 13H18.3333V16.3333H23.7983L26.5767 24.6667H3.42333L6.20167 16.3333H11.6667V13H5C4.65022 12.9998 4.30927 13.1098 4.02562 13.3145C3.74197 13.5191 3.53005 13.808 3.42 14.14L0.0866667 24.14C0.0364357 24.3108 0.0144792 24.4887 0.0216667 24.6667C1.86265e-08 24.6667 0 33 0 33C0 33.442 0.175595 33.866 0.488155 34.1785C0.800716 34.4911 1.22464 34.6667 1.66667 34.6667H28.3333C28.7754 34.6667 29.1993 34.4911 29.5118 34.1785C29.8244 33.866 30 33.442 30 33C30 33 30 24.6667 29.9783 24.6667ZM21.6667 11.1733C22.0983 11.1733 22.53 11.015 22.845 10.7017C23.1575 10.3891 23.333 9.96527 23.333 9.52333C23.333 9.08139 23.1575 8.65755 22.845 8.345L15 0.5L7.155 8.345C6.84255 8.65755 6.66702 9.08139 6.66702 9.52333C6.66702 9.96527 6.84255 10.3891 7.155 10.7017C7.47 11.0167 7.90167 11.1733 8.33333 11.1733C8.765 11.1733 9.19667 11.0167 9.51167 10.7017L13.3333 6.88V18C13.3333 18.442 13.5089 18.866 13.8215 19.1785C14.134 19.4911 14.558 19.6667 15 19.6667C15.442 19.6667 15.8659 19.4911 16.1785 19.1785C16.4911 18.866 16.6667 18.442 16.6667 18V6.88L20.4883 10.7017C20.8032 11.0086 21.227 11.1782 21.6667 11.1733Z" fill="#087E18"/>
</svg>
