<svg width="18" height="13" viewBox="0 0 18 13" fill="none" xmlns="http://www.w3.org/2000/svg">
<path d="M8.31452 12.3078C8.39097 12.4189 8.49327 12.5096 8.6126 12.5724C8.73193 12.6351 8.86471 12.6679 8.99952 12.6679C9.13433 12.6679 9.26711 12.6351 9.38645 12.5724C9.50577 12.5096 9.60807 12.4189 9.68452 12.3078L17.1845 1.47449C17.2713 1.34954 17.3222 1.20319 17.3317 1.05133C17.3412 0.899476 17.3089 0.747928 17.2383 0.613154C17.1677 0.478379 17.0615 0.365533 16.9312 0.286874C16.801 0.208216 16.6517 0.166754 16.4995 0.166993H1.49952C1.34772 0.16762 1.19897 0.209615 1.06925 0.288462C0.939539 0.367309 0.833772 0.480025 0.763327 0.614487C0.692882 0.74895 0.660424 0.900072 0.669444 1.0516C0.678464 1.20313 0.728621 1.34934 0.81452 1.47449L8.31452 12.3078Z" fill="#172670"/>
</svg>
