<svg width="26" height="26" viewBox="0 0 26 26" fill="none" xmlns="http://www.w3.org/2000/svg">
<path fill-rule="evenodd" clip-rule="evenodd" d="M6.02659 1.10893C10.6613 0.5952 15.3386 0.5952 19.9733 1.10893C22.5053 1.3916 24.5466 3.38493 24.8439 5.92627C25.3935 10.6258 25.3935 15.3734 24.8439 20.0729C24.5466 22.6143 22.5053 24.6076 19.9746 24.8916C15.3395 25.4055 10.6617 25.4055 6.02659 24.8916C3.49459 24.6076 1.45326 22.6143 1.15592 20.0743C0.606228 15.3743 0.606228 10.6262 1.15592 5.92627C1.45326 3.38493 3.49459 1.3916 6.02659 1.10893ZM19.6666 4.9996C19.313 4.9996 18.9738 5.14007 18.7238 5.39012C18.4737 5.64017 18.3333 5.97931 18.3333 6.33293C18.3333 6.68655 18.4737 7.02569 18.7238 7.27574C18.9738 7.52579 19.313 7.66627 19.6666 7.66627C20.0202 7.66627 20.3594 7.52579 20.6094 7.27574C20.8594 7.02569 20.9999 6.68655 20.9999 6.33293C20.9999 5.97931 20.8594 5.64017 20.6094 5.39012C20.3594 5.14007 20.0202 4.9996 19.6666 4.9996ZM6.66659 12.9996C6.66659 11.3199 7.33385 9.70899 8.52158 8.52126C9.70931 7.33353 11.3202 6.66627 12.9999 6.66627C14.6796 6.66627 16.2905 7.33353 17.4783 8.52126C18.666 9.70899 19.3333 11.3199 19.3333 12.9996C19.3333 14.6793 18.666 16.2902 17.4783 17.4779C16.2905 18.6657 14.6796 19.3329 12.9999 19.3329C11.3202 19.3329 9.70931 18.6657 8.52158 17.4779C7.33385 16.2902 6.66659 14.6793 6.66659 12.9996Z" fill="#5966A4"/>
</svg>
