<svg width="25" height="26" viewBox="0 0 25 26" fill="none" xmlns="http://www.w3.org/2000/svg">
<path d="M0 2.50481C0 1.53553 0.805437 0.75 1.79922 0.75H22.7008C23.6946 0.75 24.5 1.53553 24.5 2.50481V23.4952C24.5 24.4645 23.6946 25.25 22.7008 25.25H1.79922C0.805437 25.25 0 24.4645 0 23.4952V2.50481ZM7.56897 21.2596V10.1963H3.89244V21.2596H7.56897ZM5.73147 8.68494C7.01312 8.68494 7.81091 7.83663 7.81091 6.77394C7.78794 5.68828 7.01466 4.86294 5.75597 4.86294C4.49728 4.86294 3.675 5.68981 3.675 6.77394C3.675 7.83663 4.47278 8.68494 5.70697 8.68494H5.73147ZM13.2468 21.2596V15.081C13.2468 14.7502 13.2713 14.4195 13.3693 14.1837C13.6342 13.5237 14.2391 12.8392 15.2558 12.8392C16.5865 12.8392 17.1178 13.8529 17.1178 15.3413V21.2596H20.7944V14.9141C20.7944 11.5147 18.9814 9.93444 16.562 9.93444C14.6112 9.93444 13.7368 11.0063 13.2468 11.7612V11.7995H13.2223C13.2305 11.7867 13.2386 11.774 13.2468 11.7612V10.1963H9.57184C9.61778 11.2345 9.57184 21.2596 9.57184 21.2596H13.2468Z" fill="#5966A4"/>
</svg>
