<svg width="32" height="31" viewBox="0 0 32 31" fill="none" xmlns="http://www.w3.org/2000/svg">
<path d="M21.8976 2.53125H10.4361C8.91357 2.53125 8.15293 2.53125 7.54037 2.90967C6.92907 3.28683 6.58862 3.96773 5.90771 5.32955L4.13204 9.82125C3.72071 10.8591 3.36254 12.0817 4.05357 12.9587C4.37925 13.3721 4.82568 13.6737 5.33075 13.8215C5.83582 13.9694 6.37441 13.9561 6.87159 13.7836C7.36878 13.6111 7.79983 13.288 8.10479 12.8591C8.40975 12.4302 8.57345 11.9169 8.57312 11.3906C8.57312 12.062 8.8398 12.7058 9.3145 13.1805C9.7892 13.6552 10.433 13.9219 11.1044 13.9219C11.7757 13.9219 12.4195 13.6552 12.8942 13.1805C13.3689 12.7058 13.6356 12.062 13.6356 11.3906C13.6356 12.062 13.9023 12.7058 14.377 13.1805C14.8517 13.6552 15.4955 13.9219 16.1669 13.9219C16.8382 13.9219 17.482 13.6552 17.9567 13.1805C18.4314 12.7058 18.6981 12.062 18.6981 11.3906C18.6981 12.062 18.9648 12.7058 19.4395 13.1805C19.9142 13.6552 20.558 13.9219 21.2294 13.9219C21.9007 13.9219 22.5445 13.6552 23.0192 13.1805C23.4939 12.7058 23.7606 12.062 23.7606 11.3906C23.7605 11.9168 23.9244 12.4299 24.2295 12.8586C24.5345 13.2873 24.9656 13.6102 25.4627 13.7826C25.9599 13.9549 26.4983 13.9681 27.0033 13.8202C27.5082 13.6723 27.9545 13.3708 28.2802 12.9575C28.9712 12.0804 28.6118 10.8578 28.2017 9.81998L26.4248 5.32955C25.7438 3.96773 25.4047 3.28683 24.7921 2.90967C24.1808 2.53125 23.4189 2.53125 21.8976 2.53125ZM13.0028 26.8945V23.4141C13.0028 22.2307 13.0028 21.6397 13.2572 21.1992C13.4238 20.9106 13.6634 20.671 13.952 20.5044C14.3925 20.25 14.9835 20.25 16.1669 20.25C17.3502 20.25 17.9413 20.25 18.3817 20.5044C18.6703 20.671 18.9099 20.9106 19.0765 21.1992C19.3309 21.6397 19.3309 22.2307 19.3309 23.4141V26.8945H13.0028Z" fill="black"/>
<path opacity="0.5" fill-rule="evenodd" clip-rule="evenodd" d="M6.04175 13.9219C6.71308 13.9219 7.35691 13.6552 7.83161 13.1805C8.30631 12.7058 8.573 12.062 8.573 11.3906C8.573 12.062 8.83968 12.7058 9.31438 13.1805C9.78909 13.6552 10.4329 13.9219 11.1042 13.9219C11.7756 13.9219 12.4194 13.6552 12.8941 13.1805C13.3688 12.7058 13.6355 12.062 13.6355 11.3906C13.6355 12.062 13.9022 12.7058 14.3769 13.1805C14.8516 13.6552 15.4954 13.9219 16.1667 13.9219C16.8381 13.9219 17.4819 13.6552 17.9566 13.1805C18.4313 12.7058 18.698 12.062 18.698 11.3906C18.698 12.062 18.9647 12.7058 19.4394 13.1805C19.9141 13.6552 20.5579 13.9219 21.2292 13.9219C21.9006 13.9219 22.5444 13.6552 23.0191 13.1805C23.4938 12.7058 23.7605 12.062 23.7605 11.3906C23.7605 12.062 24.0272 12.7058 24.5019 13.1805C24.9766 13.6552 25.6204 13.9219 26.2917 13.9219V26.8945H19.3308V23.4141C19.3308 22.2307 19.3308 21.6397 19.0764 21.1992C18.9098 20.9106 18.6702 20.671 18.3816 20.5044C17.9412 20.25 17.3501 20.25 16.1667 20.25C14.9834 20.25 14.3923 20.25 13.9519 20.5044C13.6633 20.671 13.4237 20.9106 13.2571 21.1992C13.0027 21.6397 13.0027 22.2307 13.0027 23.4141V26.8945H6.04175V13.9219Z" fill="#A3EEAC"/>
<path d="M19.3308 26.8945H3.5105C3.25875 26.8945 3.01731 26.9945 2.8393 27.1726C2.66129 27.3506 2.56128 27.592 2.56128 27.8438C2.56128 28.0955 2.66129 28.3369 2.8393 28.5149C3.01731 28.693 3.25875 28.793 3.5105 28.793H28.823C29.0747 28.793 29.3162 28.693 29.4942 28.5149C29.6722 28.3369 29.7722 28.0955 29.7722 27.8438C29.7722 27.592 29.6722 27.3506 29.4942 27.1726C29.3162 26.9945 29.0747 26.8945 28.823 26.8945H19.3308Z" fill="black"/>
</svg>
