<svg width="14" height="14" viewBox="0 0 14 14" fill="none" xmlns="http://www.w3.org/2000/svg">
<path fill-rule="evenodd" clip-rule="evenodd" d="M5.39466 1.13318C5.28981 1.22805 5.17963 1.31686 5.06466 1.39918C4.866 1.53251 4.64266 1.62451 4.408 1.67118C4.306 1.69118 4.19933 1.69984 3.98666 1.71651C3.45266 1.75918 3.18533 1.78051 2.96266 1.85918C2.70806 1.94907 2.47682 2.09482 2.2859 2.28574C2.09497 2.47666 1.94922 2.70791 1.85933 2.96251C1.78066 3.18518 1.75933 3.45251 1.71666 3.98651C1.70939 4.12769 1.69426 4.26835 1.67133 4.40784C1.62466 4.64251 1.53266 4.86584 1.39933 5.06451C1.34133 5.15118 1.272 5.23251 1.13333 5.39451C0.785996 5.80251 0.611996 6.00651 0.509996 6.21984C0.274663 6.71318 0.274663 7.28651 0.509996 7.77984C0.611996 7.99318 0.785996 8.19718 1.13333 8.60518C1.272 8.76718 1.34133 8.84851 1.39933 8.93518C1.53266 9.13384 1.62466 9.35718 1.67133 9.59184C1.69133 9.69384 1.7 9.80051 1.71666 10.0132C1.75933 10.5472 1.78066 10.8145 1.85933 11.0372C1.94922 11.2918 2.09497 11.523 2.2859 11.7139C2.47682 11.9049 2.70806 12.0506 2.96266 12.1405C3.18533 12.2192 3.45266 12.2405 3.98666 12.2832C4.19933 12.2998 4.306 12.3085 4.408 12.3285C4.64266 12.3752 4.866 12.4678 5.06466 12.6005C5.15133 12.6585 5.23266 12.7278 5.39466 12.8665C5.80266 13.2138 6.00666 13.3878 6.22 13.4898C6.71333 13.7252 7.28666 13.7252 7.78 13.4898C7.99333 13.3878 8.19733 13.2138 8.60533 12.8665C8.76733 12.7278 8.84866 12.6585 8.93533 12.6005C9.134 12.4672 9.35733 12.3752 9.592 12.3285C9.694 12.3085 9.80066 12.2998 10.0133 12.2832C10.5473 12.2405 10.8147 12.2192 11.0373 12.1405C11.2919 12.0506 11.5232 11.9049 11.7141 11.7139C11.905 11.523 12.0508 11.2918 12.1407 11.0372C12.2193 10.8145 12.2407 10.5472 12.2833 10.0132C12.3 9.80051 12.3087 9.69384 12.3287 9.59184C12.3753 9.35718 12.468 9.13384 12.6007 8.93518C12.6587 8.84851 12.728 8.76718 12.8667 8.60518C13.214 8.19718 13.388 7.99318 13.49 7.77984C13.7253 7.28651 13.7253 6.71318 13.49 6.21984C13.388 6.00651 13.214 5.80251 12.8667 5.39451C12.7718 5.28966 12.683 5.17948 12.6007 5.06451C12.4675 4.86577 12.375 4.64257 12.3287 4.40784C12.3058 4.26835 12.2906 4.12769 12.2833 3.98651C12.2407 3.45251 12.2193 3.18518 12.1407 2.96251C12.0508 2.70791 11.905 2.47666 11.7141 2.28574C11.5232 2.09482 11.2919 1.94907 11.0373 1.85918C10.8147 1.78051 10.5473 1.75918 10.0133 1.71651C9.87215 1.70924 9.73149 1.6941 9.592 1.67118C9.35727 1.62483 9.13407 1.53238 8.93533 1.39918C8.82049 1.31669 8.71032 1.22788 8.60533 1.13318C8.19733 0.785843 7.99333 0.611843 7.78 0.509843C7.53645 0.39343 7.26993 0.333008 7 0.333008C6.73006 0.333008 6.46354 0.39343 6.22 0.509843C6.00666 0.611843 5.80266 0.785843 5.39466 1.13318ZM9.91533 5.57518C10.0096 5.47205 10.0604 5.33656 10.0572 5.19691C10.0541 5.05725 9.9972 4.92419 9.89843 4.82541C9.79965 4.72664 9.66659 4.66976 9.52693 4.66661C9.38728 4.66346 9.25179 4.71429 9.14866 4.80851L5.91533 8.04184L4.85133 6.97851C4.7482 6.88429 4.61271 6.83346 4.47306 6.83661C4.3334 6.83976 4.20034 6.89664 4.10157 6.99541C4.00279 7.09419 3.94591 7.22725 3.94276 7.36691C3.93961 7.50656 3.99044 7.64205 4.08466 7.74518L5.53133 9.19184C5.63307 9.29337 5.77093 9.3504 5.91466 9.3504C6.0584 9.3504 6.19626 9.29337 6.298 9.19184L9.916 5.57518H9.91533Z" fill="#087E18"/>
</svg>
