<svg width="" height="" viewBox="0 0 12 12" fill="none" xmlns="http://www.w3.org/2000/svg">
<g clip-path="url(#clip0_606_2185)">
<path d="M6.25 7.1875C7.02665 7.1875 7.65625 6.5579 7.65625 5.78125C7.65625 5.0046 7.02665 4.375 6.25 4.375C5.47335 4.375 4.84375 5.0046 4.84375 5.78125C4.84375 6.5579 5.47335 7.1875 6.25 7.1875Z" fill="black"/>
<path d="M11.5022 5.66172C11.0887 4.59214 10.3709 3.66717 9.4374 3.00112C8.50393 2.33508 7.39576 1.95715 6.24985 1.91406C5.10394 1.95715 3.99577 2.33508 3.0623 3.00112C2.12884 3.66717 1.411 4.59214 0.997507 5.66172C0.969581 5.73896 0.969581 5.82354 0.997507 5.90078C1.411 6.97036 2.12884 7.89533 3.0623 8.56138C3.99577 9.22742 5.10394 9.60535 6.24985 9.64844C7.39576 9.60535 8.50393 9.22742 9.4374 8.56138C10.3709 7.89533 11.0887 6.97036 11.5022 5.90078C11.5301 5.82354 11.5301 5.73896 11.5022 5.66172ZM6.24985 8.06641C5.79789 8.06641 5.35608 7.93238 4.98029 7.68129C4.60449 7.43019 4.3116 7.0733 4.13864 6.65574C3.96568 6.23818 3.92043 5.77871 4.0086 5.33544C4.09678 4.89216 4.31442 4.48499 4.634 4.1654C4.95359 3.84582 5.36076 3.62818 5.80404 3.54C6.24732 3.45183 6.70678 3.49708 7.12434 3.67004C7.5419 3.843 7.89879 4.13589 8.14989 4.51169C8.40098 4.88748 8.53501 5.32929 8.53501 5.78125C8.53408 6.38703 8.29302 6.96772 7.86467 7.39607C7.43632 7.82442 6.85563 8.06548 6.24985 8.06641Z" fill="#172670"/>
</g>
<defs>
<clipPath id="clip0_606_2185">
<rect width="11.25" height="11.25" fill="white" transform="translate(0.625 0.15625)"/>
</clipPath>
</defs>
</svg>
