<svg width="" height="" viewBox="0 0 30 31" fill="none" xmlns="http://www.w3.org/2000/svg">
<path d="M26.1559 8.45045C22.2371 2.37545 14.2121 0.575445 8.00586 4.3442C1.94961 8.11295 -0.000394821 16.3254 3.91835 22.3817L4.23711 22.8692L2.92461 27.7817L7.83711 26.4692L8.32461 26.7879C10.4434 27.9317 12.7496 28.5879 15.0371 28.5879C17.4934 28.5879 19.9496 27.9317 22.0684 26.6192C28.1246 22.6817 29.9246 14.6379 26.1559 8.41295V8.45045ZM22.7246 21.0879C22.0684 22.0629 21.2434 22.7192 20.0996 22.8879C19.4434 22.8879 18.6184 23.2067 15.3559 21.9129C12.5809 20.6004 10.2746 18.4629 8.64336 16.0067C7.66836 14.8629 7.16211 13.3817 7.01211 11.9004C7.01211 10.5879 7.49961 9.4442 8.32461 8.6192C8.64336 8.30045 8.98086 8.1317 9.29961 8.1317H10.1246C10.4434 8.1317 10.7809 8.1317 10.9496 8.78795C11.2684 9.61295 12.0934 11.5817 12.0934 11.7504C12.2621 11.9192 12.1871 13.1754 11.4371 13.8879C11.0246 14.3567 10.9496 14.3754 11.1184 14.7129C11.7746 15.6879 12.5996 16.6817 13.4059 17.5067C14.3809 18.3317 15.3746 18.9879 16.5184 19.4754C16.8371 19.6442 17.1746 19.6442 17.3434 19.3067C17.5121 18.9879 18.3184 18.1629 18.6559 17.8254C18.9746 17.5067 19.1434 17.5067 19.4809 17.6567L22.1059 18.9692C22.4246 19.1379 22.7621 19.2879 22.9309 19.4567C23.0996 19.9442 23.0996 20.6004 22.7621 21.0879H22.7246Z" fill="currentColor"/>
</svg>
