<svg width="20" height="20" viewBox="0 0 20 20" fill="none" xmlns="http://www.w3.org/2000/svg">
<g clip-path="url(#clip0_402_3002)">
<path fill-rule="evenodd" clip-rule="evenodd" d="M9.99984 1.66602C5.39734 1.66602 1.6665 5.39685 1.6665 9.99935C1.6665 11.5743 2.104 13.0493 2.86484 14.306L2.1215 16.8327C2.07882 16.9778 2.07602 17.1316 2.11337 17.2782C2.15073 17.4247 2.22688 17.5585 2.3338 17.6654C2.44073 17.7723 2.57449 17.8485 2.72102 17.8858C2.86755 17.9232 3.02144 17.9204 3.1665 17.8777L5.69317 17.1343C6.99207 17.9203 8.48169 18.3347 9.99984 18.3327C14.6023 18.3327 18.3332 14.6018 18.3332 9.99935C18.3332 5.39685 14.6023 1.66602 9.99984 1.66602ZM8.11484 11.8852C9.80067 13.5702 11.4098 13.7927 11.9782 13.8135C12.8423 13.8452 13.684 13.1852 14.0115 12.4193C14.0528 12.3241 14.0679 12.2195 14.055 12.1164C14.0421 12.0134 14.0017 11.9157 13.9382 11.8335C13.4815 11.2502 12.864 10.831 12.2607 10.4143C12.1347 10.3273 11.9799 10.2923 11.8287 10.3169C11.6776 10.3414 11.5418 10.4235 11.4498 10.546L10.9498 11.3085C10.9236 11.3495 10.8826 11.3789 10.8353 11.3907C10.7881 11.4025 10.7381 11.3957 10.6957 11.3719C10.3565 11.1777 9.86234 10.8477 9.50734 10.4927C9.15234 10.1377 8.84234 9.66602 8.66817 9.34852C8.64658 9.30818 8.64033 9.26138 8.6506 9.21679C8.66087 9.1722 8.68694 9.13285 8.724 9.10602L9.494 8.53435C9.60389 8.4388 9.67481 8.30618 9.69325 8.16174C9.71169 8.01729 9.67636 7.87111 9.594 7.75102C9.22067 7.20435 8.78567 6.50935 8.15484 6.04852C8.07343 5.98952 7.97806 5.95273 7.87811 5.94177C7.77817 5.93082 7.6771 5.94606 7.58484 5.98602C6.81817 6.31435 6.15484 7.15602 6.1865 8.02185C6.20734 8.59018 6.42984 10.1993 8.11484 11.8852Z" fill="#38468A"/>
</g>
<defs>
<clipPath id="clip0_402_3002">
<rect width="20" height="20" fill="white"/>
</clipPath>
</defs>
</svg>
