<svg width="21" height="20" viewBox="0 0 21 20" fill="none" xmlns="http://www.w3.org/2000/svg">
<path d="M17.9376 5.3003C15.3251 1.2503 9.97506 0.0502969 5.83756 2.5628C1.80006 5.0753 0.500062 10.5503 3.11256 14.5878L3.32506 14.9128L2.45006 18.1878L5.72506 17.3128L6.05006 17.5253C7.46256 18.2878 9.00006 18.7253 10.5251 18.7253C12.1626 18.7253 13.8001 18.2878 15.2126 17.4128C19.2501 14.7878 20.4501 9.4253 17.9376 5.2753V5.3003ZM15.6501 13.7253C15.2126 14.3753 14.6626 14.8128 13.9001 14.9253C13.4626 14.9253 12.9126 15.1378 10.7376 14.2753C8.88756 13.4003 7.35006 11.9753 6.26256 10.3378C5.61256 9.5753 5.27506 8.5878 5.17506 7.6003C5.17506 6.7253 5.50006 5.9628 6.05006 5.4128C6.26256 5.2003 6.48756 5.0878 6.70006 5.0878H7.25006C7.46256 5.0878 7.68756 5.0878 7.80006 5.5253C8.01256 6.0753 8.56256 7.3878 8.56256 7.5003C8.67506 7.6128 8.62506 8.4503 8.12506 8.9253C7.85006 9.2378 7.80006 9.2503 7.91256 9.4753C8.35006 10.1253 8.90006 10.7878 9.43756 11.3378C10.0876 11.8878 10.7501 12.3253 11.5126 12.6503C11.7251 12.7628 11.9501 12.7628 12.0626 12.5378C12.1751 12.3253 12.7126 11.7753 12.9376 11.5503C13.1501 11.3378 13.2626 11.3378 13.4876 11.4378L15.2376 12.3128C15.4501 12.4253 15.6751 12.5253 15.7876 12.6378C15.9001 12.9628 15.9001 13.4003 15.6751 13.7253H15.6501Z" fill="#087E18"/>
</svg>
