<svg width="14" height="15" viewBox="0 0 14 15" fill="none" xmlns="http://www.w3.org/2000/svg">
<path d="M0.25 11.4374V14.2499H3.0625L11.3575 5.95488L8.545 3.14238L0.25 11.4374ZM13.5325 3.77988C13.602 3.71049 13.6572 3.62808 13.6948 3.53735C13.7325 3.44662 13.7518 3.34936 13.7518 3.25113C13.7518 3.1529 13.7325 3.05564 13.6948 2.96491C13.6572 2.87418 13.602 2.79177 13.5325 2.72238L11.7775 0.96738C11.7081 0.897852 11.6257 0.842692 11.535 0.805055C11.4442 0.767419 11.347 0.748047 11.2488 0.748047C11.1505 0.748047 11.0533 0.767419 10.9625 0.805055C10.8718 0.842692 10.7894 0.897852 10.72 0.96738L9.3475 2.33988L12.16 5.15238L13.5325 3.77988Z" fill="#FDFDFD"/>
</svg>
