<svg width="14" height="14" viewBox="0 0 14 14" fill="none" xmlns="http://www.w3.org/2000/svg">
<path d="M6.99966 3.49967C9.06291 3.49967 10.9879 4.28892 12.4206 5.72159L13.2454 4.89676C11.5928 3.24359 9.37441 2.33301 6.99966 2.33301C4.62491 2.33359 2.40649 3.24359 0.753906 4.89676L1.57874 5.72159C3.01141 4.28892 4.93641 3.49967 6.99966 3.49967ZM10.3077 8.34543C8.51457 6.55226 5.48474 6.55226 3.69157 8.34543L4.51641 9.17026C5.86216 7.82451 8.13716 7.82451 9.48291 9.17026L10.3077 8.34543Z" fill="black"/>
<path d="M11.9217 6.58804C9.25469 3.91987 4.7461 3.91987 2.0791 6.58804L2.90394 7.41287C5.12468 5.19212 8.8761 5.19212 11.0969 7.41287L11.9217 6.58804Z" fill="black"/>
<path d="M6.99967 11.6663C7.64401 11.6663 8.16634 11.144 8.16634 10.4997C8.16634 9.85534 7.64401 9.33301 6.99967 9.33301C6.35534 9.33301 5.83301 9.85534 5.83301 10.4997C5.83301 11.144 6.35534 11.6663 6.99967 11.6663Z" fill="black"/>
</svg>
