<svg width="18" height="26" viewBox="0 0 18 26" fill="none" xmlns="http://www.w3.org/2000/svg">
<path d="M11.6484 0.265625C13.306 0.265625 14.8958 0.924105 16.0679 2.09621C17.24 3.26831 17.8984 4.85802 17.8984 6.51562V24.0156C17.8985 24.2419 17.8371 24.464 17.7208 24.6581C17.6045 24.8523 17.4377 25.0112 17.2381 25.118C17.0386 25.2247 16.8138 25.2753 16.5878 25.2643C16.3618 25.2534 16.1429 25.1812 15.9547 25.0556L9.14844 20.5181L2.34344 25.0556C2.16506 25.175 1.95894 25.2464 1.74494 25.2631C1.53094 25.2797 1.31627 25.2409 1.1216 25.1505C0.926934 25.06 0.758832 24.921 0.633487 24.7468C0.508141 24.5725 0.429775 24.3689 0.405938 24.1556L0.398438 24.0156V6.51562C0.398438 4.85802 1.05692 3.26831 2.22902 2.09621C3.40112 0.924105 4.99083 0.265625 6.64844 0.265625H11.6484Z" fill="#7B86BE"/>
</svg>
